<?xml version="1.0" encoding="utf-8"?>
<!-- Generator: Adobe Illustrator 23.0.1, SVG Export Plug-In . SVG Version: 6.00 Build 0)  -->
<svg version="1.1" id="Layer_1" xmlns="http://www.w3.org/2000/svg" xmlns:xlink="http://www.w3.org/1999/xlink" x="0px" y="0px"
	 viewBox="0 0 24 24" style="enable-background:new 0 0 24 24;" xml:space="preserve">
<style type="text/css">
	.st0{fill:#AD054A;}
</style>
<path class="st0" d="M0,5.8v12.5C0,19.8,1.2,21,2.8,21h18.5c1.5,0,2.8-1.2,2.8-2.8V5.8C24,4.2,22.8,3,21.2,3H2.8C1.2,3,0,4.2,0,5.8z
	 M6.6,10.9L2,16.6V7.2L6.6,10.9z M2.5,5h19L12,12.7L2.5,5z M8.2,12.2l3.8,3.1l3.8-3.1l5.6,6.8H2.7L8.2,12.2z M17.4,10.9L22,7.2v9.3
	L17.4,10.9z"/>
</svg>
